<?xml version="1.0" encoding="UTF-8" standalone="no"?>
<!-- Created with Inkscape (http://www.inkscape.org/) -->

<svg
   xmlns:dc="http://purl.org/dc/elements/1.1/"
   xmlns:cc="http://creativecommons.org/ns#"
   xmlns:rdf="http://www.w3.org/1999/02/22-rdf-syntax-ns#"
   xmlns:svg="http://www.w3.org/2000/svg"
   xmlns="http://www.w3.org/2000/svg"
   xmlns:xlink="http://www.w3.org/1999/xlink"
   xmlns:sodipodi="http://sodipodi.sourceforge.net/DTD/sodipodi-0.dtd"
   xmlns:inkscape="http://www.inkscape.org/namespaces/inkscape"
   width="744.09448819"
   height="1052.3622047"
   id="svg2"
   version="1.1"
   inkscape:version="0.48.3.1 r9886"
   sodipodi:docname="newstar.svg"
   inkscape:export-filename="/home/malloy/Documents/framework/images/newstar.png"
   inkscape:export-xdpi="5.2131062"
   inkscape:export-ydpi="5.2131062">
  <defs
     id="defs4">
    <linearGradient
       id="linearGradient3755">
      <stop
         style="stop-color:#0000ff;stop-opacity:1;"
         offset="0"
         id="stop3757" />
      <stop
         style="stop-color:#ff0000;stop-opacity:0;"
         offset="1"
         id="stop3759" />
    </linearGradient>
    <linearGradient
       inkscape:collect="always"
       xlink:href="#linearGradient3755"
       id="linearGradient3761"
       x1="-257.82425"
       y1="166.61414"
       x2="445.58105"
       y2="166.61414"
       gradientUnits="userSpaceOnUse" />
  </defs>
  <sodipodi:namedview
     id="base"
     pagecolor="#ffffff"
     bordercolor="#666666"
     borderopacity="1.0"
     inkscape:pageopacity="0.0"
     inkscape:pageshadow="2"
     inkscape:zoom="0.35"
     inkscape:cx="375"
     inkscape:cy="634.28571"
     inkscape:document-units="px"
     inkscape:current-layer="layer1"
     showgrid="false"
     inkscape:window-width="1024"
     inkscape:window-height="674"
     inkscape:window-x="0"
     inkscape:window-y="31"
     inkscape:window-maximized="1" />
  <metadata
     id="metadata7">
    <rdf:RDF>
      <cc:Work
         rdf:about="">
        <dc:format>image/svg+xml</dc:format>
        <dc:type
           rdf:resource="http://purl.org/dc/dcmitype/StillImage" />
        <dc:title></dc:title>
      </cc:Work>
    </rdf:RDF>
  </metadata>
  <g
     inkscape:label="Layer 1"
     inkscape:groupmode="layer"
     id="layer1">
    <path
       sodipodi:type="star"
       style="fill:url(#linearGradient3761);fill-opacity:1"
       id="path2985"
       sodipodi:sides="30"
       sodipodi:cx="94.285713"
       sodipodi:cy="166.6479"
       sodipodi:r1="336.24579"
       sodipodi:r2="168.12289"
       sodipodi:arg1="0.85756179"
       sodipodi:arg2="0.96228155"
       inkscape:flatsided="false"
       inkscape:rounded="0.05"
       inkscape:randomized="0.05"
       d="m 311.56502,432.5886 c -6.33847,5.93211 -110.30679,-121.83924 -117.07271,-117.02318 -6.76592,4.81606 73.02681,135.92141 65.36785,139.88934 -7.65896,3.96794 -89.18962,-142.43605 -96.63827,-138.69476 -7.44866,3.74129 20.89054,171.40308 12.52207,173.55714 -8.36846,2.15406 -46.08404,-172.46356 -54.35685,-170.66188 -8.27281,1.80167 0.7593,196.51911 -7.89338,196.86352 -8.65268,0.34441 -2.97284,-185.6969 -11.41822,-185.61674 -8.445369,0.0802 -30.162356,183.79223 -38.631997,182.36797 -8.46964,-1.42426 14.439212,-178.31379 6.324012,-180.79229 C 61.652324,329.99921 3.5766916,498.95895 -4.6225465,496.61098 -12.821785,494.263 38.719804,328.75261 30.811811,325.75647 22.903819,322.76033 -63.201106,466.31035 -70.350047,461.92688 -77.498987,457.54341 13.761153,301.61401 6.9746434,296.65837 0.18813439,291.70272 -146.23687,413.86261 -152.10252,407.75644 c -5.86564,-6.10616 126.30416,-113.91373 121.273155,-120.54762 -5.031005,-6.63389 -149.220775,67.03301 -154.464205,60.50285 -5.24342,-6.53016 129.055784,-104.25784 124.706531,-111.61514 -4.349252,-7.3573 -141.407591,60.40755 -144.331101,52.51209 -2.9235,-7.89546 143.217071,-72.51494 140.990934,-80.60985 -2.226137,-8.09491 -165.546514,19.98369 -167.319914,11.77973 -1.7734,-8.20396 166.730187,-21.68501 165.387849,-30.24119 -1.342339,-8.55618 -180.539449,-17.73754 -180.668919,-26.25414 -0.12947,-8.5166 173.342688,2.40683 174.63362,-6.0375 1.290932,-8.44434 -173.45056,-45.88131 -171.012,-54.14874 2.43855,-8.267433 171.443875,22.7119 174.336964,14.63984 2.893089,-8.07206 -149.445044,-92.759098 -145.311854,-100.06794 4.13319,-7.308842 150.825618,79.89519 155.165944,72.417801 4.340327,-7.477389 -103.348204,-121.426681 -98.533484,-128.22166 4.81472,-6.794979 129.615054,80.960485 135.254153,74.868197 5.6391,-6.092287 -122.067843,-131.227056 -115.485233,-136.837108 6.5826,-5.61006 117.198734,122.53813 124.456406,117.791061 7.2576725,-4.747069 -48.213102,-152.065781 -40.939648,-156.177091 7.273454,-4.11132 86.644089,167.758435 94.212299,163.962033 7.56821,-3.796402 -45.0365803,-175.028123 -36.890688,-177.283663 8.145892,-2.25555 36.875099,140.018678 45.066279,137.859056 8.19118,-2.159621 25.561678,-163.001576 34.134258,-164.006826 8.57258,-1.00524 3.608665,164.327311 11.971923,164.843877 8.363261,0.516567 29.707581,-165.632817 38.043691,-164.499877 8.33611,1.13294 -13.96402,163.341392 -5.70109,165.828968 8.26292,2.4875756 62.18005,-146.016678 70.28594,-143.501768 8.10588,2.51492 -53.83425,172.517641 -45.94876,175.635956 7.88549,3.118315 119.81241,-161.198196 126.81388,-156.417856 7.00148,4.78034 -85.15617,162.869957 -78.51444,168.409903 6.64173,5.539946 118.5291,-131.960991 124.8302,-126.036253 6.3011,5.924738 -117.99252,133.46001 -112.04217,139.740139 5.95035,6.280129 142.46192,-68.442925 147.0805,-61.270735 4.61859,7.1721899 -128.58313,86.388452 -124.11821,93.747047 4.46491,7.358596 174.15156,-63.900852 177.95514,-56.235166 3.80357,7.665685 -170.60551,97.912055 -167.78498,105.873675 2.82053,7.96161 177.78377,-32.848642 178.94172,-24.48233 1.15796,8.36632 -149.2339,25.50233 -148.437,34.01814 0.7969,8.51581 151.51098,24.18013 150.83729,32.51164 -0.67368,8.33151 -181.11568,-5.98013 -182.05192,2.36485 -0.93625,8.34498 174.14562,60.59276 172.85874,68.85029 -1.28688,8.25754 -165.60047,-36.38005 -168.80001,-28.57351 -3.19954,7.80654 168.2047,76.88851 165.05778,84.5775 -3.14693,7.68899 -183.56823,-66.60053 -188.23682,-59.56608 -4.66859,7.03445 144.58315,123.45053 139.32368,129.85588 -5.25947,6.40534 -128.97765,-99.13682 -134.66584,-92.7363 -5.68819,6.40053 87.64542,151.67787 81.30695,157.60998 z"
       inkscape:transform-center-x="8.6921083"
       inkscape:transform-center-y="-23.28897"
       transform="translate(285.71429,271.42857)" />
  </g>
</svg>
